<svg width="49" height="68" fill="none" xmlns="http://www.w3.org/2000/svg"><path d="M23.989.296c-.32.33-.32-.024 0 3.971.142 1.774.271 2.353.39 1.762.023-.154.118-1.218.189-2.353.07-1.134.154-2.281.189-2.553.06-.39.012-.544-.213-.804L24.272 0l-.283.296zM20.903.948c-.059.13-.118.331-.118.45 0 .212 2.376 4.81 2.613 5.047.224.237.082-.284-.757-2.813-.721-2.14-.91-2.601-1.147-2.743-.39-.213-.449-.2-.59.06zM27.038.899c-.26.142-.425.532-1.158 2.778-.473 1.43-.84 2.671-.816 2.742.036.083.65-.981 1.383-2.352 1.194-2.27 1.313-2.542 1.218-2.885-.106-.46-.213-.508-.627-.283zM17.83 2.731c0 .485.035.52 2.01 2.034.224.177.969.744 1.642 1.265.674.531 1.289.957 1.348.957.118 0 .06-.083-.745-1.017-.224-.26-.674-.792-1.005-1.17-2.14-2.506-2.175-2.541-2.73-2.541h-.52v.472zM27.984 4.175c-2.411 2.766-2.364 2.719-2.293 2.79.047.059.957-.615 3.475-2.577 1.454-1.123 1.549-1.23 1.549-1.714 0-.414 0-.414-.532-.414h-.52l-1.679 1.915zM15.028 4.516c-.45.13-.461.237-.165.816.177.33.33.425.792.544.567.13 4.397 1.146 6.017 1.595.98.26.886.249.886.13 0-.059-.84-.484-1.856-.957-1.028-.485-2.317-1.088-2.872-1.348-2.093-.98-2.093-.98-2.802-.78zM31.956 4.73c-.78.355-1.702.78-2.955 1.372-.45.213-1.324.615-1.915.887-.603.283-1.1.555-1.1.602 0 .13-.094.142.946-.141.792-.213 1.998-.544 5.414-1.443.615-.165 1.123-.319 1.147-.342.07-.071.413-.958.39-.982-.107-.082-.875-.295-1.029-.283-.106 0-.508.153-.898.33zM23.918 7.33c-.65.272-.769 1.005-.249 1.537L24 9.21l-.142 1.702a63.392 63.392 0 0 1-.602 5.036c-.119.697-.119.91.011 1.147.213.39.284.378.58-.119.307-.52.472-.52.815 0 .308.485.367.497.639.13.2-.272.189-.342-.024-1.513a43.352 43.352 0 0 1-.662-5.118l-.083-1.312.378-.367c.438-.437.462-.745.107-1.147-.308-.342-.745-.46-1.1-.319zM11.765 8.074l-.449.39.45.438.448.437 5.072-.46c2.79-.26 5.095-.497 5.13-.533.036-.023-.012-.082-.106-.118-.201-.07-5.603-.39-8.204-.473l-1.892-.07-.449.39zM33.493 7.779c-.32.012-2.08.118-3.901.224-1.82.095-3.357.237-3.416.296-.071.06-.095.106-.06.106.024 0 2.341.213 5.13.473l5.084.461.414-.402.402-.413-.402-.414-.402-.414-1.123.024c-.627.012-1.395.035-1.726.059zM22.203 8.962c-.094.036-.33.13-.532.225-.189.083-1.63.58-3.191 1.1-1.56.52-4.291 1.442-6.076 2.044l-3.251 1.1-.379.65c-.212.355-.342.686-.307.721.047.048.355.201.686.331l.59.26 5.557-2.73c3.05-1.502 5.934-2.92 6.407-3.157.46-.224.851-.46.851-.52 0-.118-.083-.118-.355-.024zM25.986 8.986c0 .107.721.473 7.98 4.02 2.411 1.182 4.468 2.198 4.586 2.27.166.094.379.058.863-.143.355-.153.639-.319.639-.366 0-.237-.603-1.277-.792-1.371-.119-.06-2.873-1.005-6.124-2.093a567.954 567.954 0 0 1-6.478-2.199c-.65-.26-.674-.26-.674-.118zM21.671 10.616c-.65.615-2.186 2.104-3.428 3.322-1.23 1.206-3.357 3.286-4.728 4.622-1.36 1.324-3.405 3.322-4.528 4.433l-2.033 2.01v2.092l1.04-.07c.958-.072 1.052-.107 1.324-.438l.899-1.088c.579-.697 2.683-3.322 3.416-4.243.2-.249.52-.65.71-.899.2-.248 1.843-2.305 3.664-4.563 1.82-2.258 3.44-4.28 3.605-4.492l.816-1.052c.284-.367.496-.686.473-.71-.024-.023-.58.45-1.23 1.076zM25.513 9.53c0 .035.213.319.461.626.473.556 2.944 3.594 4.008 4.918.307.378.945 1.17 1.418 1.75.473.579 1.43 1.749 2.128 2.612a252.102 252.102 0 0 0 3.097 3.806c.426.52.887 1.088 1.005 1.253.13.166.627.792 1.111 1.395l.887 1.076h1.962v-1.832l-2.707-2.66-7.932-7.802c-2.872-2.825-5.272-5.166-5.331-5.178-.06-.023-.107-.012-.107.036z" fill="#F687B3"/><path d="M22.925 10.616c-.213.449-.887 1.737-1.49 2.872a271.182 271.182 0 0 0-2.01 3.842c-.508.97-1.43 2.754-2.068 3.96a2148.42 2148.42 0 0 1-2.128 4.079c-1.36 2.624-3.038 5.827-3.322 6.324-.13.224-.354.65-.484.946-.142.295-.958 1.88-1.833 3.522l-1.584 2.991.26 1.123c.142.615.296 1.135.343 1.17.118.071 2.033-.756 2.27-.993.189-.177.46-.792 1.513-3.44a247.5 247.5 0 0 1 .946-2.305c.732-1.761 1.832-4.445 2.99-7.27.355-.875.899-2.21 1.206-2.955.308-.745.71-1.75.899-2.223.189-.46.437-1.075.567-1.359.118-.272.567-1.348.993-2.388.71-1.75 2.79-6.785 3.192-7.743.496-1.194.307-1.3-.26-.153zM25.04 9.861c0 .106.296.875.887 2.27.272.65.757 1.797 1.064 2.541.308.745.71 1.703.887 2.128.33.745 1.761 4.161 2.541 6.088.213.52.686 1.631 1.04 2.482.615 1.466 1.608 3.83 2.767 6.62.567 1.372.827 1.998 2.388 5.734l1.075 2.553c.107.26 2.01 1.159 2.152 1.017.035-.047.236-.485.45-.981l.377-.91-.886-1.691c-.981-1.927-3.96-7.578-6.644-12.696-.993-1.891-2.104-3.984-2.459-4.67-2.364-4.563-5.414-10.331-5.532-10.461-.06-.06-.106-.071-.106-.024zM23.977 17.413c-.13.213-.32.662-.426 1.005-.154.544-.154.65 0 1.029.166.402.201.425.769.425.543 0 .59-.023.709-.366.07-.213.13-.485.13-.627 0-.295-.627-1.667-.816-1.773-.07-.047-.236.095-.366.307zM25.407 17.436c-.177.213-.177.473-.023 1.088.082.32.082.615.011.886-.142.497-.153.462.06.462.307 0 .449-.875.295-1.785-.083-.45-.154-.816-.177-.816a.645.645 0 0 0-.166.165zM22.972 17.508c-.06.083-.118.544-.154 1.005-.059.886.083 1.36.402 1.36.142 0 .154-.048.036-.25-.13-.247-.095-1.063.07-1.583.095-.307-.212-.757-.354-.532zM22.783 20.511c-.497.437-.52.686-.083 1.182l.378.426H25.431l.39-.426c.224-.225.402-.496.402-.58 0-.094-.177-.33-.378-.52-.379-.354-.414-.366-1.573-.366-1.064.012-1.217.036-1.49.284zm.33.497c.084.224-.236.579-.425.472-.142-.094-.177-.46-.047-.579.142-.142.39-.083.473.107zm1.502 0c.083.224-.118.52-.343.52-.224 0-.425-.296-.342-.52.035-.107.189-.19.342-.19.154 0 .308.083.343.19zm1.348.13c-.048.401-.39.508-.509.165-.094-.32.012-.485.308-.485.189 0 .236.071.2.32zM23.102 22.498c-.024.083-.13.58-.248 1.1-.107.52-.438 1.655-.721 2.53-.284.874-.52 1.678-.52 1.784 0 .213.425.828.567.828.047 0 .189-.19.307-.414.13-.224.296-.414.39-.414.083 0 .249.19.355.414.106.225.225.414.26.414s.201-.236.355-.532c.33-.615.52-.674.72-.177.249.603.415.65.698.177.13-.225.284-.414.343-.414.047 0 .248.237.438.532l.33.532.272-.473.272-.484-.484-1.502c-.58-1.797-.91-3.132-.922-3.664v-.379H24.33c-.85 0-1.205.048-1.229.142z" fill="#F687B3"/><path d="M23.67 29.163c-.462.733-.568 1.017-.568 1.454l-.012.544h2.246l.036-.45c.023-.319-.071-.65-.343-1.181a51.391 51.391 0 0 1-.508-.993c-.071-.154-.166-.272-.213-.272-.047 0-.331.402-.639.898zM25.384 28.644c-.178.355-.178.426.023.887.118.283.237.508.272.508.036 0 .154-.166.26-.367.201-.402.154-.733-.165-1.146l-.213-.272-.177.39zM22.629 28.643c-.225.319-.237.567-.047.981.177.39.236.378.496-.106.201-.367.201-.426.024-.769-.237-.437-.248-.437-.473-.106zM21.329 29.212c-.142 1.253.094 2.01.626 2.01.65 0 .674-.922.048-1.986-.237-.402-.473-.733-.52-.733-.036 0-.107.32-.154.71zM26.424 29.46c-.248.462-.438.946-.438 1.076 0 .414.225.686.58.686.271 0 .366-.083.496-.378.248-.603.166-2.223-.118-2.223-.047 0-.284.379-.52.84zM18.61 29.802c-.095.237-.165 1.655-.083 1.655.036 0 .201-.13.378-.307l.308-.296.39.615c.225.33.461.875.556 1.206.082.33.26.709.39.839.2.201.272.213.508.083.32-.178.591-.568.497-.721-.048-.071-.296-.118-.58-.118-.484 0-.496-.012-.626-.509-.083-.272-.402-.875-.733-1.324-.981-1.383-.934-1.324-1.005-1.123zM29.675 29.826a.491.491 0 0 0-.142.295c0 .083-.178.355-.402.591-.426.485-.816 1.194-.946 1.714-.07.296-.13.331-.615.331-.366 0-.543.06-.602.19-.083.224.401.756.685.756.272 0 .639-.52.816-1.17.142-.556.366-.97.745-1.395l.236-.26.225.284c.413.532.437.473.354-1.159-.023-.343-.13-.402-.354-.177zM21.447 31.883c-.2.52-.225.52 2.825.52 1.975 0 2.897-.036 2.897-.13 0-.071-.06-.225-.119-.355-.118-.213-.283-.225-2.825-.225-2.352 0-2.719.024-2.778.19zM19.45 33.066c-.155.296-.155.379-.013.58.213.295.213.59-.023.945-.178.272-.178.32 0 .591.106.166.248.296.307.296.142 0 .402-.473.307-.556-.035-.047.036-.142.166-.236.449-.32.496-.58.177-.887-.165-.142-.295-.33-.295-.402 0-.082-.095-.26-.225-.413l-.213-.272-.189.354zM21.766 33.396c-.343.355-.626.698-.626.769 0 .07.165.248.366.39.19.154.473.45.603.662l.236.39.284-.26c.154-.142.284-.331.284-.402 0-.083.13-.201.283-.272.166-.07.355-.236.414-.366.118-.201.071-.284-.284-.568-.224-.177-.413-.39-.413-.46 0-.12-.379-.521-.485-.521a9.778 9.778 0 0 0-.662.638zm1.029.71c0 .236-.32.46-.533.378-.212-.071-.236-.438-.035-.638.165-.166.567.023.567.26zM23.386 32.983c0 .213.72.957.922.957.059 0 .272-.177.484-.402.58-.602.45-.78-.579-.78-.733 0-.827.024-.827.225zM25.762 33.065c-.142.177-.249.343-.249.39 0 .036-.165.178-.354.308-.45.295-.45.413.035.863.201.189.509.508.662.685l.284.343.189-.284a7.27 7.27 0 0 1 .65-.733c.497-.473.509-.72.047-.945-.153-.071-.378-.296-.508-.497-.319-.485-.46-.508-.756-.13zm.697 1.123c0 .272-.177.378-.473.284-.295-.095-.307-.485-.035-.639.26-.141.508.036.508.355z" fill="#F687B3"/><path d="M28.622 32.89a.635.635 0 0 0-.153.378c0 .13-.13.33-.296.46-.165.13-.295.308-.295.403 0 .094.13.307.295.472.166.166.296.39.296.52 0 .379.26.414.555.072.249-.296.26-.343.095-.58-.225-.319-.225-.674-.012-.98.154-.214.142-.273-.082-.568-.213-.26-.284-.296-.402-.178zM18.964 33.894c-.13.33-.07.638.107.638.189 0 .366-.508.236-.698-.106-.189-.26-.153-.343.06z" fill="#F687B3"/><path d="M29.237 33.834c-.106.154.036.698.166.698.142 0 .213-.343.154-.627-.06-.224-.213-.26-.32-.07zM17.203 34.661c-.118.922-.095 1.644.024 1.644.07 0 .212-.166.33-.355.107-.201.237-.355.285-.355.189 0 .815.863 1.182 1.608.26.52.413.733.437.591.07-.32-.603-1.584-1.206-2.293-.295-.355-.544-.698-.544-.769 0-.082-.106-.271-.224-.425l-.213-.272-.07.627zM30.951 34.436c-.13.212-.236.437-.236.508-.012.06-.225.331-.485.591-.496.497-1.005 1.454-1.135 2.093-.094.52.083.342.379-.39.248-.627.98-1.632 1.194-1.644.059 0 .236.154.378.355.153.189.307.355.354.355.048 0 .071-.355.048-.804a30.948 30.948 0 0 1-.048-1.123c-.011-.426-.165-.402-.449.059zM23.764 34.804c-.567.58-.508.674.45.674.72 0 .827-.024.827-.213 0-.224-.58-.851-.78-.851-.072 0-.284.177-.497.39zM20.43 34.886c-.378.532-.248.71.532.71.544 0 .65-.036.65-.214 0-.236-.579-.85-.791-.85-.083 0-.249.165-.39.354zM27.11 34.898c-.166.201-.284.437-.26.508.058.166 1.264.237 1.418.083.094-.094.011-.248-.272-.544-.225-.224-.438-.413-.485-.413-.047 0-.224.165-.402.366zM25.844 35.926c-.212.024-.33.107-.33.237 0 .106-.06.72-.119 1.371-.13 1.36-.035 1.714.284 1.052.26-.532.686-2.541.567-2.636-.047-.036-.224-.047-.402-.024zM26.72 35.985c-.26.307-.296 1.088-.072 1.513.107.225.225.343.249.284.165-.52.46-1.844.413-1.891-.118-.119-.473-.06-.59.094zM27.795 35.925c-.177.106-.508 1.454-.508 2.045 0 .236.07.485.153.556.13.106.19.011.308-.485.094-.343.283-.934.437-1.312.154-.39.284-.745.284-.804 0-.118-.485-.118-.674 0zM20.324 36.53c.118.33.307.945.414 1.371.189.757.2.768.425.567.296-.26.248-.827-.142-1.844-.224-.602-.283-.674-.59-.674h-.332l.225.58zM21.423 36.835c.142.485.272.887.308.887.035-.012.153-.13.26-.284.189-.26.189-.33.023-.886-.153-.544-.212-.603-.508-.603h-.331l.248.886zM22.25 36.128c.036.095.154.639.249 1.194.19 1.017.556 1.832.697 1.596.083-.118-.141-2.719-.248-2.884-.023-.048-.213-.083-.414-.083-.271 0-.342.047-.283.177zM23.338 36.445c.036.284.095.828.142 1.218l.083.71.272-.426c.2-.331.26-.603.26-1.218v-.78h-.828l.071.496zM24.45 36.73c0 .721.248 1.466.484 1.466.036 0 .119-.39.154-.863.047-.46.118-.97.154-1.123.059-.236.011-.26-.367-.26h-.425v.78zM17.841 38.385c-.638 1.005-.626 1.395.012 1.442.379.035.461-.012.615-.32.225-.425.236-1.264.035-1.642-.153-.26-.165-.237-.662.52zM30.088 37.853c-.319.497-.343.852-.094 1.443.236.555.26.567.685.532.39-.036.45-.083.485-.367.024-.189-.06-.46-.225-.685a8.475 8.475 0 0 1-.46-.78l-.202-.426-.189.283zM19.366 38.433c-.343.402-.508.721-.52.981l-.012.378H20.49l.036-.425c.035-.426-.378-1.525-.568-1.525-.059 0-.319.272-.59.591zM21.494 38.444c-.485.615-.674 1.064-.532 1.277.036.071.461.13.958.13.933 0 .945-.012.874-.65-.023-.296-.59-1.36-.72-1.36-.06 0-.32.272-.58.603zM23.811 38.409c-.496.674-.71 1.206-.567 1.347.059.06.555.095 1.1.071.98-.035.992-.035.957-.33-.036-.296-.84-1.644-.993-1.656-.036 0-.26.26-.497.568zM25.998 38.598c-.567 1.1-.485 1.253.65 1.253 1.017 0 1.147-.118.84-.768-.201-.414-.875-1.241-1.029-1.241-.047 0-.26.342-.46.756zM28.244 38.41c-.165.343-.248.733-.224.98l.035.403.804.035c.91.036 1.028-.059.757-.709-.178-.414-.863-1.277-1.017-1.277-.047 0-.213.26-.355.568zM16.884 40.265c0 .154.898.178 7.33.178 6.43 0 7.328-.024 7.328-.178 0-.153-.898-.177-7.329-.177-6.43 0-7.33.024-7.33.177zM15.82 40.855c0 .153 1.028.177 8.511.177 7.483 0 8.512-.024 8.512-.177 0-.154-1.029-.178-8.512-.178-7.483 0-8.511.024-8.511.178zM15.276 41.399c-.094.165.284.71.544.78.118.035.201.118.166.19-.071.2.39.91.59.91.202 0 .78-.663.78-.887 0-.083.13-.19.296-.225.308-.083.721-.58.615-.745-.035-.047-.248-.094-.496-.094-.331.012-.461.07-.568.295-.2.402-.91.426-1.087.024-.06-.142-.166-.26-.237-.272a2.09 2.09 0 0 1-.319-.047c-.118-.024-.248.012-.284.07z" fill="#F687B3"/><path d="M16.411 41.388c-.154.095-.154.13 0 .295.166.154.225.154.402.024.39-.284.012-.58-.402-.32zM19.84 41.447c0 .106.13.32.295.473.153.165.366.295.473.295.094 0 .177.083.177.178 0 .094.154.343.343.555.343.379.366.379.685.213.178-.106.402-.355.497-.567.095-.201.248-.379.33-.379.226 0 .746-.532.746-.768 0-.13-.13-.177-.532-.177-.461 0-.532.035-.603.295-.166.639-.97.674-1.289.06-.153-.308-.248-.355-.65-.355-.343 0-.473.047-.473.177z" fill="#F687B3"/><path d="M21.21 41.376c-.035.047 0 .189.095.307.19.272.662.142.662-.189 0-.166-.083-.225-.343-.225-.2 0-.378.048-.413.107zM25.159 41.493c0 .248.52.721.78.721.095 0 .19.13.236.284.036.153.201.413.355.555.272.26.32.26.615.107.177-.107.366-.343.437-.568.071-.248.177-.378.331-.378.237 0 .792-.544.792-.78 0-.118-.165-.166-.532-.166-.46 0-.555.036-.65.284-.236.615-.946.65-1.182.06-.13-.308-.201-.344-.662-.344-.437 0-.52.036-.52.225z" fill="#F687B3"/><path d="M26.518 41.376c-.059.118.237.485.402.485.154 0 .497-.426.402-.509-.118-.118-.72-.094-.804.024zM30.337 41.399c-.201.13.2.674.555.768.166.036.296.142.296.225 0 .189.567.886.72.886.213 0 .58-.484.58-.756 0-.178.083-.32.213-.355.283-.094.662-.733.496-.84-.224-.141-.65.036-.768.32-.083.201-.237.284-.532.307-.343.024-.45-.023-.591-.283-.178-.32-.662-.461-.97-.272z" fill="#F687B3"/><path d="M31.483 41.388c-.07.106.249.473.402.473.154 0 .414-.355.331-.438-.118-.106-.662-.142-.733-.035zM23.882 41.789c-.213.236-.378.508-.378.591 0 .083-.248.284-.556.45-.319.153-.58.378-.603.496-.059.272.272.626.757.804.224.082.402.224.402.33 0 .107.153.367.343.592.413.496.638.425 1.016-.308.154-.295.402-.544.698-.697.65-.32.768-.568.484-.899-.13-.141-.413-.33-.614-.425-.213-.083-.39-.225-.39-.307 0-.095-.178-.367-.39-.615l-.39-.45-.379.438zm.875 1.194c.473.473.153 1.123-.556 1.123-.33 0-.697-.367-.697-.686 0-.212.543-.733.768-.733.107 0 .32.13.485.296z" fill="#F687B3"/><path d="M23.93 43.112c-.225.225-.237.296-.036.568.248.343.721.2.768-.213.06-.508-.378-.721-.733-.355zM29.036 41.825c-.189.237-.33.52-.33.65 0 .119-.084.213-.202.213-.118 0-.402.166-.626.355l-.414.343.355.366c.189.201.473.39.614.426.154.047.272.165.272.272 0 .106.154.378.355.602l.355.414.354-.39c.19-.213.355-.46.355-.544 0-.094.236-.307.52-.472.697-.414.768-.639.307-1.04-.189-.19-.437-.332-.532-.332-.094 0-.177-.07-.177-.154 0-.189-.674-1.146-.804-1.146-.047.012-.224.2-.402.437zm.828 1.052c.532.367.224 1.23-.438 1.23-.626 0-.886-.674-.437-1.123.343-.343.508-.367.875-.107z" fill="#F687B3"/><path d="M29.202 43.03c-.095.06-.142.249-.119.438.024.272.107.355.355.378.26.036.343-.023.402-.26.118-.484-.248-.804-.638-.555zM18.752 41.824c-.166.19-.331.438-.379.568-.035.13-.26.343-.496.473-.78.425-.78.91.012 1.288.236.118.437.308.484.473.036.154.225.437.414.615l.355.343.236-.296a3.13 3.13 0 0 0 .355-.591c.059-.166.307-.402.544-.532.827-.45.827-.851 0-1.277-.237-.118-.438-.283-.438-.354 0-.166-.59-1.029-.697-1.029-.047 0-.225.142-.39.32zm.756 1.183c.438.39.166 1.217-.402 1.217-.59 0-.898-.756-.484-1.206.236-.26.602-.272.886-.011z" fill="#F687B3"/><path d="M18.799 43.148c-.095.048-.142.249-.118.438.035.295.082.343.39.343.33 0 .354-.036.354-.414 0-.32-.047-.426-.236-.45-.13-.011-.307.024-.39.083zM33.623 41.765c-.106.142-.19.414-.19.591 0 .213-.07.343-.236.39-.307.095-.744.721-.638.91.19.343.58.686.768.686.166 0 .201.071.154.379-.035.248.012.472.13.614.166.225.177.225.426 0 .142-.118.319-.366.413-.544.154-.307.142-.366-.141-.791-.296-.462-.296-.473-.107-.887.118-.236.248-.461.308-.497.13-.082-.142-.626-.462-.91-.224-.213-.236-.213-.425.06zM14.236 42.095l-.32.485.249.307c.307.39.307.863-.012 1.265-.272.355-.236.52.26 1.123.225.272.237.272.473.06.19-.166.237-.32.19-.615-.048-.237-.024-.355.046-.308.107.06.934-.733.934-.91 0-.047-.212-.272-.473-.496-.319-.272-.472-.497-.472-.698 0-.26-.308-.685-.497-.685-.035 0-.2.212-.378.472z" fill="#F687B3"/><path d="M34.51 43.031c-.26.485-.095 1.076.319 1.076.118 0 .141-.154.118-.615-.036-.65-.237-.85-.438-.46zM13.515 43.278c-.142.65.154 1.04.508.686.178-.178.178-.722 0-.899-.236-.236-.425-.165-.508.213zM16.317 43.81c-.142.178-.284.414-.32.544-.047.119-.224.379-.425.568-.45.461-.438.603.07.603.273 0 .414-.06.414-.154s.107-.26.237-.378a.592.592 0 0 1 .945.236c.095.249.19.296.592.296.26 0 .472-.06.472-.118 0-.19-.555-.71-.744-.71-.095 0-.201-.118-.249-.272-.035-.141-.212-.413-.402-.59l-.342-.332-.248.308zM21.222 43.846c-.165.178-.319.426-.342.556a.356.356 0 0 1-.272.272c-.296.059-.769.484-.769.697 0 .107.166.154.509.154.437 0 .52-.036.65-.355.284-.614 1.111-.579 1.276.06.06.26.142.295.591.295.284 0 .52-.06.52-.118 0-.201-.555-.71-.768-.71-.094 0-.177-.07-.177-.165 0-.201-.426-.745-.698-.899-.165-.082-.283-.035-.52.213zM26.471 43.929c-.2.236-.366.496-.366.591 0 .095-.095.177-.213.177-.237 0-.733.461-.733.686 0 .083.189.142.473.142.402 0 .496-.047.65-.355.32-.614 1.123-.579 1.288.06.071.26.142.295.603.295.379 0 .532-.047.532-.166 0-.248-.685-.78-.886-.709-.119.047-.178 0-.178-.165 0-.249-.532-.97-.709-.97-.047 0-.26.19-.461.414zM31.554 43.822c-.13.165-.272.402-.307.532-.048.118-.142.224-.237.224-.189 0-.792.686-.72.816.13.2.886-.024 1.075-.307.248-.379.886-.343 1.064.047.082.2.212.272.52.272.378 0 .39-.012.224-.272a1.425 1.425 0 0 0-.425-.378c-.166-.071-.26-.225-.26-.426 0-.26-.414-.816-.615-.816-.047 0-.189.142-.319.308z" fill="#F687B3"/><path d="M21.329 45.123c-.296.296-.225.402.284.402.508 0 .532-.024.354-.367-.153-.272-.39-.283-.638-.035zM26.601 45.076c-.26.26-.154.449.248.449.485 0 .58-.083.426-.367-.13-.26-.461-.295-.674-.082zM31.613 45.124c-.26.26-.248.283.225.283.461 0 .544-.165.19-.354-.178-.083-.273-.071-.415.07zM16.376 45.123c-.201.2-.06.402.283.402.284 0 .355-.047.32-.213-.036-.2-.45-.343-.603-.19zM15.82 46.056c0 .154 1.017.178 8.452.178 7.436 0 8.452-.024 8.452-.178 0-.153-1.016-.177-8.452-.177-7.435 0-8.452.024-8.452.177zM16.706 47.404c.414.827.426.84.887.84.26 0 .473-.036.473-.095 0-.048-.095-.402-.213-.792l-.213-.71-.674-.035-.685-.036.425.828zM18.184 46.647c0 .036.083.414.19.828l.189.768h.52c.284 0 .52-.035.52-.083 0-.035-.06-.413-.13-.827l-.13-.745h-.58c-.319 0-.579.024-.579.06zM19.84 46.672c.011.06.07.414.153.804.154.698.154.71.591.745.497.047.485.047.367-1.016l-.083-.615h-.509c-.283 0-.52.035-.52.082zM21.423 47.026c.036.248.071.626.071.827 0 .378.024.39.473.39h.473V46.588h-1.1l.083.438zM22.936 47.38l.036.804.508.035.497.036V46.588H22.9l.035.792zM24.497 46.755c-.036.083-.047.45-.024.792l.036.639.484.035c.485.036.485.024.556-.414a5.44 5.44 0 0 0 .083-.839c0-.366-.012-.378-.532-.378-.343 0-.568.059-.603.165zM26.105 47.404v.84h.401c.225 0 .438-.036.462-.095.035-.048.082-.402.094-.792l.047-.71-.496-.035-.508-.036v.828zM27.594 46.777c-.036.107-.071.473-.071.828v.638h.461c.26 0 .497-.035.52-.094.024-.048.083-.414.13-.828l.083-.733h-.52c-.378 0-.556.06-.603.19zM29.25 46.694c-.048.06-.107.438-.154.84l-.072.72.45-.035c.425-.035.46-.07.662-.626.33-.934.307-1.005-.296-1.005-.295 0-.555.047-.59.106zM30.916 46.67c-.071.12-.438 1.349-.438 1.479 0 .047.225.094.509.094h.508l.438-.827.425-.828h-.697c-.379 0-.722.036-.745.083zM15.702 49.094l-.367.508 8.95.036c4.929.012 8.972 0 9.007-.036.035-.023-.083-.271-.26-.532l-.307-.472H16.08l-.378.496zM13.054 50.264a1.61 1.61 0 0 0-.532.272c-.107.095-.508.32-.887.497-.579.26-.662.33-.484.425.354.201 2.068.06 2.588-.212.438-.225 1.005-.816.887-.922-.106-.095-1.253-.142-1.572-.06zM15.371 50.336c-.083.224-.095 2.01 0 2.104.024.024.485-.106 1.005-.307.98-.379 1.62-.863 1.832-1.395.201-.556.095-.603-1.383-.603-1.194 0-1.383.023-1.454.2zM18.94 50.314c-.047.094-.035.319.012.496.119.485.887 1.809 1.04 1.809.084 0 .58-.426 1.124-.934.768-.733.981-1.005.945-1.218-.035-.26-.07-.272-1.548-.307-1.265-.024-1.513 0-1.572.154zM22.593 50.324c-.094.272.083.602.922 1.631l.745.922.331-.39c.828-.97 1.395-1.809 1.395-2.069v-.283h-1.655c-1.395 0-1.678.023-1.738.189zM26.518 50.254c-.047.07-.047.248-.012.402.06.236.32.508 1.679 1.737l.378.343.485-.804c.307-.52.496-.98.52-1.276l.024-.461-1.502-.036c-.98-.023-1.524.012-1.572.095zM30.301 50.253c-.142.225.201.946.58 1.241.319.248 1.997 1.005 2.222 1.005.153 0 .236-1.513.094-1.939l-.142-.425H31.72c-.792 0-1.372.047-1.419.118zM34.332 50.24l-.59.072.377.437c.485.544 1.23.804 2.317.804.993 0 1.36-.154.863-.343-.189-.07-.354-.13-.39-.13-.035 0-.33-.177-.674-.39-.697-.45-1.075-.532-1.903-.45z" fill="#F687B3"/><path d="M8.94 51.909c-2.246 1.1-4.326 2.849-5.213 4.374-.236.413-.437.827-.437.91 0 .13 4.078.154 20.994.154h20.983l-.083-.272c-.343-1.1-1.49-2.507-2.825-3.452-.84-.58-2.483-1.478-3.287-1.773-.543-.201-.614-.201-1.123-.024-1.04.355-2.234.366-3.12.024-.154-.06-.213-.024-.213.118 0 .2-.012.2-.733-.024-.19-.059-.213.024-.213.544 0 .721-.177.851-.745.567a50.025 50.025 0 0 0-1.288-.602c-.828-.367-.934-.39-1.029-.213-.106.189-.153.177-.579-.06l-.46-.26-.332.674c-.52 1.052-.484 1.052-1.17.367-.331-.331-.721-.686-.875-.792-.26-.177-.295-.166-.555.165l-.272.343-.379-.355-.366-.342-.296.343c-.153.2-.46.59-.662.874l-.378.532-.354-.46c-.201-.25-.544-.651-.757-.876l-.378-.425-.296.354-.307.355-.284-.33c-.154-.178-.33-.32-.39-.32s-.461.343-.875.756c-.425.414-.816.722-.875.686-.059-.047-.248-.39-.425-.768-.177-.367-.39-.674-.461-.674-.071 0-.284.094-.485.2-.319.202-.354.202-.46.013-.095-.166-.25-.13-1.431.39-.721.319-1.395.555-1.478.532-.095-.036-.154-.26-.154-.591 0-.615-.106-.721-.532-.52-.271.118-.33.118-.425-.06-.095-.153-.166-.165-.438-.059-.177.071-.768.13-1.323.13-.84.012-1.112-.035-1.655-.283l-.662-.308-.899.438zM.712 54.036c-.153.07-.378.343-.52.674-.224.508-.236.638-.118 1.217.118.532.248.745.757 1.265.72.733 1.395 1.029 1.395.627 0-.048-.272-.26-.591-.485-1.3-.875-1.608-2.825-.461-2.825.78 0 1.099.484 1.229 1.891.106 1.017.118 1.052.425.981.249-.07.249-.118.178-.957-.095-1.23-.497-2.08-1.076-2.33-.496-.2-.816-.212-1.218-.058zM46.33 54.568c-.496.461-.697.993-.744 2.069-.036.59-.012.65.236.685.237.036.26 0 .26-.59 0-1.29.438-1.986 1.242-1.986.295 0 .472.094.697.366.615.733.213 1.643-1.017 2.317-.579.32-.744.626-.354.626.354 0 1.655-.91 1.915-1.324.413-.685.272-1.513-.39-2.198-.296-.308-.461-.379-.875-.379s-.591.071-.97.414z" fill="#F687B3"/><path d="M1.28 56.874c0 .059.142.118.307.118.166 0 .414.06.556.13.248.118.248.106-.024-.118-.283-.26-.84-.343-.84-.13zM46.46 57.014c-.212.213-.177.39.048.213.095-.095.378-.201.615-.248l.437-.083-.473-.012c-.272 0-.544.047-.626.13zM.323 57.548c-.071.19-.107.591-.071.91.059.65.46 1.135.957 1.135.39 0 1.064-.497 1.111-.804.048-.295-.153-.355-.26-.083-.035.095-.248.26-.473.379-.378.177-.437.177-.709 0-.355-.237-.496-.828-.32-1.3.166-.414.166-.556.013-.556-.071 0-.178.142-.248.319zM2.935 57.62c-.45.153-.603.531-.308.78.237.189 43.183.189 43.42 0 .2-.178.2-.65-.012-.733-.083-.036-9.729-.095-21.42-.13-16.715-.048-21.35-.036-21.68.082zm42.77.46c.035.201-1.041.213-21.362.213-21.893 0-21.727 0-21.325-.39.035-.047 9.657-.07 21.36-.06 20.168.036 21.29.048 21.326.237zM48.021 58.15c.012.438-.047.769-.154.887-.248.307-.862.248-1.194-.095-.307-.319-.472-.378-.472-.153 0 .2.733.78 1.11.874.25.06.391-.011.722-.342.355-.355.414-.497.414-.946 0-.639-.083-.91-.296-.91-.094 0-.142.212-.13.685zM3.29 58.965c.011.792 1.454 2.47 2.908 3.416 1.926 1.242 4.976 2.388 7.506 2.814 7.093 1.182 13.31 1.182 20.38 0 1.17-.201 3.83-.887 4.527-1.17 1.325-.556 2.081-.923 3.795-1.845 1.135-.614 2.577-2.21 2.79-3.097l.083-.32H24.284c-19.919 0-20.994.013-20.994.202zM45.61 60.596c0 1.147.047 1.833.118 1.833.07 0 .118-.686.118-1.833 0-1.146-.047-1.832-.118-1.832s-.119.686-.119 1.832zM2.51 60.125c0 .71.011.993.035.614a11.92 11.92 0 0 0 0-1.3c-.024-.343-.036-.035-.036.686zM2.817 60.656c0 1.5.023 1.773.177 1.773s.177-.272.177-1.773c0-1.502-.023-1.774-.177-1.774s-.177.272-.177 1.774zM46.011 60.242c0 .65.012.899.036.556a9.874 9.874 0 0 0 0-1.182c-.024-.307-.036-.024-.036.627zM46.082 61.719c0 .06.06.118.119.118.07 0 .118-.059.118-.118 0-.071-.047-.118-.118-.118a.118.118 0 0 0-.119.118zM1.99 62.133c0 .237.058.296.295.296.236 0 .295-.06.295-.296s-.059-.295-.295-.295c-.237 0-.296.059-.296.295zM45.964 62.192c0 .19.083.237.355.237.272 0 .354-.048.354-.237s-.082-.236-.354-.236c-.272 0-.355.047-.355.236zM1.363 62.75c-.13.224-.213 2.754-.095 2.754.06 0 .13-.331.154-.733.035-.674.059-.757.366-.898.249-.119.32-.237.32-.52 0-.213.082-.426.212-.52.178-.143.13-.154-.354-.166-.308 0-.58.035-.603.082zM2.698 62.785c0 .059.107.118.237.118s.236-.06.236-.118c0-.071-.106-.118-.236-.118s-.237.047-.237.118zM45.55 62.785c-.035.059.036.118.178.118s.212-.06.177-.118a.223.223 0 0 0-.177-.118.222.222 0 0 0-.178.118zM46.354 62.83c.118.095.201.308.201.533 0 .283.071.401.284.496.248.118.296.248.366.946.048.449.119.792.166.768.094-.059-.06-2.612-.166-2.79-.035-.059-.295-.118-.567-.118-.437.012-.473.024-.284.166z" fill="#F687B3"/><path d="M2.226 63.435v.414h1.3v-.828h-1.3v.414zM45.137 63.447v.414l.626-.036c.603-.035.615-.047.65-.425l.036-.379h-1.312v.426zM2.226 64.959c0 1.277-.119 2.435-.26 2.435-.06 0-.071-.674-.024-1.655.07-1.501.059-1.655-.118-1.655-.272 0-.284.06-.355 1.915l-.06 1.632h2.885l-.035-1.502c-.036-1.702-.083-2.045-.296-2.045-.118 0-.142.39-.106 1.655.035 1.029.012 1.655-.06 1.655-.153 0-.271-1.135-.271-2.435 0-.58-.047-.993-.118-.993s-.119.65-.119 1.714-.047 1.714-.118 1.714c-.07 0-.118-.626-.118-1.643 0-.981-.047-1.679-.118-1.726-.142-.083-.13-.177-.118 1.797.011 1.348-.012 1.572-.178 1.572-.153 0-.177-.248-.177-1.714 0-1.064-.047-1.714-.118-1.714s-.118.414-.118.993z" fill="#F687B3"/><path d="M44.581 64.214c-.07.166-.154 1.005-.177 1.856l-.036 1.56h2.79L47.075 66c-.118-2.389-.33-2.566-.402-.32-.07 2.045-.224 1.915-.272-.236-.035-2.022-.26-1.844-.271.236-.012 1.1-.06 1.655-.154 1.69-.095.036-.13-.46-.13-1.678 0-1.076-.047-1.726-.118-1.726s-.119.627-.119 1.643c0 .981-.047 1.679-.118 1.726-.07.047-.118-.508-.118-1.584 0-1.513-.094-2.08-.284-1.596-.035.107-.07.875-.07 1.714 0 2.163-.225 1.974-.26-.224-.036-1.442-.06-1.69-.178-1.43z" fill="#F687B3"/></svg>